<svg width="220" height="36" viewBox="0 0 220 36" fill="none" xmlns="http://www.w3.org/2000/svg">
<path d="M0 18.0176V17.1387C0 14.1504 0.146484 11.6455 0.439453 9.62402C0.732422 7.58789 1.23779 5.93262 1.95557 4.6582C2.67334 3.38379 3.64746 2.40967 4.87793 1.73584C6.12305 1.06201 7.68311 0.60791 9.55811 0.373535C11.4331 0.124512 13.689 0 16.3257 0H25.1807C28.1982 0 30.7397 0.146484 32.8052 0.439453C34.8853 0.717773 36.5552 1.28174 37.8149 2.13135C39.0894 2.96631 40.0122 4.2041 40.5835 5.84473C41.1548 7.4707 41.4404 9.63135 41.4404 12.3267H37.2217C37.2217 10.2026 37.0312 8.55469 36.6504 7.38281C36.2695 6.19629 35.625 5.33936 34.7168 4.81201C33.8232 4.28467 32.6001 3.9624 31.0474 3.84521C29.4946 3.71338 27.5391 3.64746 25.1807 3.64746H16.3257C14.231 3.64746 12.4658 3.71338 11.0303 3.84521C9.59473 3.9624 8.42285 4.24805 7.51465 4.70215C6.62109 5.1416 5.93262 5.84473 5.44922 6.81152C4.98047 7.77832 4.6582 9.09668 4.48242 10.7666C4.30664 12.4365 4.21875 14.5605 4.21875 17.1387V18.0176C4.21875 20.5078 4.30664 22.5732 4.48242 24.2139C4.6582 25.8545 4.98047 27.1655 5.44922 28.147C5.93262 29.1284 6.62109 29.8608 7.51465 30.3442C8.42285 30.8276 9.59473 31.1426 11.0303 31.2891C12.4658 31.4355 14.231 31.5088 16.3257 31.5088H25.1807C27.5391 31.5088 29.4946 31.4575 31.0474 31.355C32.6001 31.2524 33.8232 30.9521 34.7168 30.4541C35.625 29.9561 36.2695 29.1284 36.6504 27.9712C37.0312 26.7993 37.2217 25.1587 37.2217 23.0493H41.4404C41.4404 25.7446 41.1548 27.8979 40.5835 29.5093C40.0122 31.1206 39.0894 32.3364 37.8149 33.1567C36.5552 33.9624 34.8853 34.4971 32.8052 34.7607C30.7397 35.0244 28.1982 35.1562 25.1807 35.1562H16.3257C13.0298 35.1562 10.3198 34.9292 8.1958 34.4751C6.07178 34.0356 4.40918 33.2153 3.20801 32.0142C2.02148 30.813 1.18652 29.0845 0.703125 26.8286C0.234375 24.5728 0 21.6357 0 18.0176ZM48.5596 34.4531V0.703125H52.7783V30.9375H79.4971V34.4531H48.5596ZM85.21 34.4531V0.703125H110.259C113.555 0.703125 116.265 0.900879 118.389 1.29639C120.513 1.69189 122.168 2.46094 123.354 3.60352C124.556 4.73145 125.391 6.37939 125.859 8.54736C126.343 10.7153 126.584 13.5791 126.584 17.1387V18.0176C126.584 21.46 126.343 24.2651 125.859 26.4331C125.391 28.5864 124.556 30.249 123.354 31.4209C122.168 32.5781 120.513 33.3765 118.389 33.8159C116.265 34.2407 113.555 34.4531 110.259 34.4531H85.21ZM89.4287 30.8057H110.259C112.881 30.8057 114.99 30.6812 116.587 30.4321C118.184 30.1831 119.399 29.6411 120.234 28.8062C121.069 27.9712 121.633 26.6968 121.926 24.9829C122.219 23.269 122.366 20.9473 122.366 18.0176V17.1387C122.366 14.707 122.278 12.7002 122.102 11.1182C121.926 9.53613 121.597 8.29102 121.113 7.38281C120.645 6.45996 119.956 5.78613 119.048 5.36133C118.154 4.92188 116.99 4.64355 115.554 4.52637C114.119 4.40918 112.354 4.35059 110.259 4.35059H89.4287V30.8057ZM133.726 0.703125H156.313C159.609 0.703125 162.261 0.849609 164.268 1.14258C166.289 1.43555 167.82 1.94092 168.86 2.65869C169.9 3.37646 170.603 4.35791 170.969 5.60303C171.335 6.84814 171.519 8.42285 171.519 10.3271V11.2061C171.519 12.9639 171.306 14.48 170.881 15.7544C170.471 17.0142 169.673 18.0396 168.486 18.8306C167.3 19.6069 165.542 20.1562 163.213 20.4785L170.552 34.4531H166.333L159.148 20.7861C158.855 20.8008 158.547 20.8081 158.225 20.8081C157.917 20.8081 157.595 20.8081 157.258 20.8081H137.944V34.4531H133.726V0.703125ZM137.944 17.1606H156.599C159.104 17.1606 161.074 17.0801 162.51 16.9189C163.96 16.7432 165.022 16.4429 165.696 16.0181C166.384 15.5933 166.824 14.9927 167.014 14.2163C167.205 13.4399 167.3 12.4365 167.3 11.2061V10.3271C167.3 8.93555 167.168 7.83691 166.904 7.03125C166.641 6.22559 166.113 5.63232 165.322 5.25146C164.531 4.87061 163.352 4.62891 161.785 4.52637C160.217 4.40918 158.123 4.35059 155.5 4.35059H137.944V17.1606ZM215.442 24.6973C215.442 23.3936 215.339 22.3682 215.134 21.6211C214.929 20.874 214.468 20.3247 213.75 19.9731C213.032 19.6069 211.919 19.3726 210.41 19.27C208.901 19.1528 206.836 19.0723 204.214 19.0283L191.997 18.8525C188.979 18.8086 186.555 18.6255 184.724 18.3032C182.893 17.981 181.509 17.4756 180.571 16.7871C179.634 16.084 179.004 15.1465 178.682 13.9746C178.374 12.8027 178.22 11.3379 178.22 9.58008C178.22 7.66113 178.433 6.0791 178.857 4.83398C179.297 3.58887 180.081 2.61475 181.208 1.91162C182.351 1.2085 183.962 0.717773 186.042 0.439453C188.123 0.146484 190.811 0 194.106 0H203.511C206.499 0 208.989 0.0952148 210.981 0.285645C212.974 0.476074 214.556 0.915527 215.728 1.604C216.899 2.29248 217.734 3.36182 218.232 4.81201C218.745 6.26221 219.001 8.25439 219.001 10.7886H214.783C214.783 8.82568 214.592 7.34619 214.211 6.3501C213.845 5.33936 213.23 4.65088 212.366 4.28467C211.516 3.91846 210.366 3.7207 208.916 3.69141C207.466 3.66211 205.664 3.64746 203.511 3.64746H194.326C191.704 3.64746 189.602 3.69873 188.02 3.80127C186.453 3.90381 185.266 4.13818 184.46 4.50439C183.655 4.87061 183.113 5.45654 182.834 6.26221C182.571 7.06787 182.439 8.17383 182.439 9.58008C182.439 10.7666 182.534 11.7188 182.725 12.4365C182.915 13.1543 183.34 13.7036 183.999 14.0845C184.673 14.4507 185.706 14.707 187.097 14.8535C188.489 14.9854 190.386 15.0659 192.788 15.0952L205.884 15.271C208.96 15.3149 211.414 15.498 213.245 15.8203C215.09 16.1279 216.467 16.6333 217.375 17.3364C218.298 18.0396 218.906 18.9917 219.199 20.1929C219.507 21.3794 219.661 22.8809 219.661 24.6973C219.661 26.6748 219.47 28.3374 219.089 29.6851C218.723 31.0181 218.005 32.0874 216.936 32.8931C215.867 33.6987 214.321 34.2773 212.3 34.6289C210.278 34.9805 207.62 35.1562 204.324 35.1562H194.041C191.038 35.1562 188.518 35.0244 186.482 34.7607C184.446 34.4971 182.82 33.9697 181.604 33.1787C180.403 32.373 179.539 31.1792 179.011 29.5972C178.484 28.0151 178.22 25.9058 178.22 23.269H182.439C182.439 25.3345 182.607 26.9312 182.944 28.0591C183.281 29.187 183.867 30 184.702 30.498C185.552 30.9814 186.731 31.2744 188.24 31.377C189.763 31.4648 191.697 31.5088 194.041 31.5088H204.104C206.726 31.5088 208.799 31.4282 210.322 31.2671C211.846 31.0913 212.974 30.769 213.706 30.3003C214.438 29.8169 214.907 29.1284 215.112 28.2349C215.332 27.3413 215.442 26.1621 215.442 24.6973Z" fill="#334155"/>
</svg>
